<?xml version="1.0" standalone="no"?>
<!DOCTYPE svg PUBLIC "-//W3C//DTD SVG 20010904//EN"
 "http://www.w3.org/TR/2001/REC-SVG-20010904/DTD/svg10.dtd">
<svg version="1.0" xmlns="http://www.w3.org/2000/svg"
 width="3000.000000pt" height="900.000000pt" viewBox="0 0 3000.000000 900.000000"
 preserveAspectRatio="xMidYMid meet">

<g transform="translate(0.000000,900.000000) scale(0.100000,-0.100000)"
fill="#000000" stroke="none">
<path d="M6515 8039 c-38 -4 -119 -13 -180 -18 -125 -12 -271 -34 -298 -46
-21 -9 -17 -31 6 -29 9 1 13 -4 10 -12 -7 -19 -10 -18 -37 11 l-23 25 0 -24
c0 -14 4 -23 11 -20 19 7 58 -36 53 -58 -7 -26 2 -48 19 -48 8 0 14 -4 14 -10
0 -5 -15 -10 -32 -10 -23 0 -29 -3 -19 -9 8 -5 20 -7 28 -4 12 5 17 -7 14 -34
-1 -7 5 -13 13 -13 8 0 17 6 20 13 3 6 2 -1 -1 -18 -3 -16 -10 -31 -15 -33
-14 -6 -9 -22 7 -22 8 0 15 -9 15 -20 0 -11 4 -20 9 -20 5 0 11 -6 14 -14 4
-10 -3 -12 -24 -10 -25 3 -28 1 -17 -9 7 -7 21 -16 31 -20 9 -3 17 -13 17 -22
0 -8 7 -15 15 -15 14 0 19 -11 16 -37 -1 -7 3 -13 9 -13 7 0 5 -7 -4 -16 -9
-8 -15 -23 -15 -32 1 -15 2 -15 6 1 7 28 23 19 23 -13 0 -16 -4 -30 -10 -30
-5 0 -2 -9 7 -20 10 -11 27 -20 39 -20 12 0 25 -7 28 -16 3 -9 2 -12 -5 -8
-11 7 -49 -28 -49 -46 0 -10 13 -14 38 -11 12 2 16 -16 13 -51 -2 -13 3 -16
16 -12 11 4 14 3 6 -3 -6 -4 -15 -21 -18 -36 -6 -23 -5 -26 9 -21 12 5 19 0
23 -15 3 -11 9 -21 14 -21 5 0 9 -5 9 -12 0 -6 7 -19 16 -29 11 -12 14 -25 9
-36 -7 -16 -9 -15 -15 7 -8 24 -8 24 -9 3 -1 -13 -7 -23 -16 -23 -34 0 -12
-19 30 -26 52 -7 60 -24 13 -25 -32 0 -32 -1 -9 -10 14 -5 31 -7 38 -5 7 3 13
-1 13 -9 0 -10 -10 -15 -30 -15 -16 0 -30 -4 -30 -10 0 -5 11 -10 24 -10 28 0
36 -15 29 -53 -4 -22 -2 -26 10 -21 23 9 33 -17 12 -32 -10 -8 -15 -17 -11
-21 4 -4 11 -1 16 7 7 11 10 3 10 -27 0 -35 -3 -41 -16 -36 -12 4 -10 -2 7
-20 23 -28 36 -36 23 -16 -7 12 12 29 34 29 6 0 12 -4 12 -10 0 -5 -7 -7 -15
-4 -8 4 -15 1 -15 -5 0 -6 5 -11 11 -11 6 0 4 -7 -5 -15 -8 -8 -19 -15 -25
-15 -6 0 -8 -7 -5 -15 8 -20 24 -19 24 1 0 9 6 14 13 11 6 -2 11 -14 10 -26
-2 -11 1 -20 5 -20 20 3 25 -2 12 -12 -11 -8 -12 -12 -2 -16 15 -6 16 -43 1
-43 -6 0 -3 -7 6 -16 11 -11 14 -25 10 -45 -5 -23 -3 -29 10 -29 14 0 16 -7
13 -34 -2 -19 -1 -33 2 -31 3 2 12 -1 20 -6 13 -8 13 -10 0 -19 -8 -5 -19 -11
-25 -13 -6 -3 -6 -8 -1 -13 5 -5 11 -4 13 4 6 16 26 16 21 0 -5 -14 15 -38 31
-38 18 0 12 -28 -6 -33 -17 -4 -17 -5 0 -6 9 0 17 -6 17 -12 0 -6 7 -17 15
-25 8 -8 12 -22 9 -32 -5 -14 -4 -15 5 -2 5 8 13 11 18 7 7 -7 -3 -17 -32 -32
-6 -3 -5 -7 3 -11 6 -3 12 -12 12 -20 0 -8 6 -14 13 -15 22 -1 -48 -28 -75
-29 -16 0 -28 -4 -28 -9 0 -5 -22 -11 -50 -15 -52 -7 -79 -26 -36 -26 14 0 26
4 26 9 0 5 27 12 60 16 33 4 62 11 65 15 3 4 29 11 58 15 28 4 57 11 62 15 6
4 35 12 65 18 62 12 129 27 180 42 19 5 220 55 445 110 226 55 424 104 440
109 17 5 46 12 65 16 19 3 46 10 60 15 42 14 180 43 185 39 2 -3 27 -94 55
-204 28 -110 65 -252 82 -315 47 -178 62 -156 -142 -207 -96 -25 -201 -51
-232 -59 -32 -8 -85 -21 -118 -29 -33 -8 -86 -21 -117 -29 -32 -8 -139 -36
-238 -61 -99 -26 -206 -53 -237 -61 -32 -8 -84 -21 -115 -28 -32 -8 -80 -20
-108 -26 -27 -6 -57 -15 -65 -19 -9 -5 -39 -12 -68 -16 -29 -4 -54 -11 -58
-16 -3 -5 -17 -9 -31 -9 -15 0 -24 -3 -21 -6 11 -10 128 8 121 19 -4 6 0 8 11
4 10 -4 23 -7 29 -7 7 0 6 -5 -3 -11 -10 -7 -11 -12 -4 -15 19 -8 5 -44 -14
-36 -15 5 -15 4 0 -11 9 -10 31 -20 47 -23 32 -7 43 -24 16 -24 -18 0 -20 -26
-2 -33 7 -4 6 -6 -4 -6 -21 -1 -30 -23 -18 -42 6 -10 9 -10 9 -1 0 6 5 12 10
12 6 0 10 -6 10 -14 0 -8 6 -17 13 -19 6 -3 -201 -6 -462 -6 -261 -1 -477 -4
-480 -6 -2 -3 297 -5 665 -5 705 0 1700 -9 1722 -16 9 -3 12 -190 12 -894 0
-765 -2 -902 -16 -968 -41 -205 -161 -360 -349 -452 -140 -68 -151 -70 -673
-72 l-467 -3 441 -2 441 -3 -4 -24 c-4 -18 -1 -24 12 -23 10 1 20 -4 22 -10 3
-8 -5 -13 -19 -14 -17 -1 -18 -3 -5 -6 20 -5 23 -19 5 -26 -7 -3 5 -4 27 -2
22 1 30 0 18 -2 -23 -4 -33 -23 -13 -23 14 0 12 -38 -2 -43 -22 -7 -3 -17 35
-19 30 -1 33 -3 21 -15 -8 -8 -14 -23 -14 -33 0 -10 -6 -21 -12 -24 -9 -3 -8
-8 5 -16 13 -8 17 -19 13 -35 -4 -17 0 -27 19 -39 14 -9 25 -12 25 -7 0 5 7
11 15 15 19 7 19 2 2 -16 -17 -17 -31 -108 -16 -108 6 0 19 4 29 10 14 7 20 6
24 -7 4 -9 4 -18 1 -21 -3 -3 -5 0 -5 8 0 10 -3 10 -15 0 -20 -17 -19 -31 2
-23 12 5 15 2 10 -10 -4 -11 -1 -17 8 -17 8 0 15 -4 15 -10 0 -5 -7 -10 -15
-10 -9 0 -12 -6 -9 -15 4 -10 14 -13 29 -9 13 3 26 1 29 -5 4 -7 -1 -11 -12
-11 -14 0 -19 -6 -17 -24 5 -38 15 -48 42 -41 23 5 24 4 10 -9 -8 -9 -17 -21
-20 -28 -4 -10 -7 -11 -18 0 -18 16 -29 15 -29 -3 0 -15 16 -20 53 -17 9 1 17
-2 17 -7 0 -5 3 -17 6 -25 5 -12 2 -15 -10 -10 -9 3 -16 1 -16 -5 0 -6 8 -11
18 -11 11 0 26 -8 35 -18 16 -17 14 -18 -21 -16 -20 2 -27 0 -14 -2 12 -3 22
-10 22 -15 0 -5 11 -9 24 -9 25 0 43 -16 32 -28 -4 -3 -15 -1 -24 5 -13 8 -21
7 -31 -5 -12 -13 -12 -16 2 -27 9 -7 17 -22 17 -34 0 -22 32 -61 50 -61 6 0
10 -7 10 -15 0 -8 -5 -15 -11 -15 -7 0 0 -11 14 -24 l26 -24 -19 -39 -19 -38
2 44 c1 24 -2 46 -8 48 -12 4 -14 -81 -2 -93 4 -4 16 2 27 14 26 27 27 27 24
0 -1 -13 -3 -26 -3 -30 -1 -5 -8 -8 -16 -8 -19 0 -8 -28 13 -33 15 -4 15 -5 0
-6 -20 -1 -25 -20 -5 -22 6 -1 17 -2 22 -3 6 0 22 -11 35 -24 23 -22 24 -24 8
-36 -24 -18 -23 -23 7 -30 24 -6 36 -26 15 -26 -5 0 -10 5 -10 10 0 6 -9 10
-20 10 -11 0 -20 -4 -20 -10 0 -5 8 -10 18 -10 25 0 38 -12 47 -40 7 -23 7
-23 -9 -7 -22 22 -21 22 -22 -13 -1 -21 4 -30 15 -30 14 0 14 -2 1 -10 -66
-43 113 46 218 109 29 17 55 31 57 31 7 0 251 163 310 208 569 432 1003 1035
1224 1700 34 102 78 257 91 316 4 23 17 86 29 141 48 236 64 450 58 770 -3
143 -11 292 -17 330 -6 39 -18 113 -26 165 -22 135 -52 265 -95 415 -32 109
-88 270 -119 340 -10 22 -39 87 -65 145 -239 541 -694 1080 -1210 1432 -184
126 -414 253 -610 339 -344 149 -720 240 -1135 274 -197 16 -361 17 -475 4z
m-405 -259 c0 -5 -4 -10 -10 -10 -5 0 -10 5 -10 10 0 6 5 10 10 10 6 0 10 -4
10 -10z m35 0 c-3 -5 -10 -10 -16 -10 -5 0 -9 5 -9 10 0 6 7 10 16 10 8 0 12
-4 9 -10z m-5 -60 c0 -5 -4 -10 -10 -10 -5 0 -10 5 -10 10 0 6 5 10 10 10 6 0
10 -4 10 -10z m90 -299 c0 -5 -7 -11 -14 -14 -10 -4 -13 -1 -9 9 6 15 23 19
23 5z m60 -122 c0 -14 -17 -10 -23 5 -4 10 -1 13 9 9 7 -3 14 -9 14 -14z m90
-219 c0 -5 -4 -10 -10 -10 -5 0 -10 5 -10 10 0 6 5 10 10 10 6 0 10 -4 10 -10z
m10 -50 c0 -5 -9 -10 -20 -10 -11 0 -20 5 -20 10 0 6 9 10 20 10 11 0 20 -4
20 -10z m38 -157 c16 -16 16 -16 -1 -10 -10 4 -23 7 -28 7 -5 0 -9 5 -9 10 0
15 20 12 38 -7z m20 -61 c6 -18 -15 -14 -22 4 -4 10 -1 14 6 12 6 -2 14 -10
16 -16z m112 -322 c0 -5 -4 -10 -10 -10 -5 0 -10 5 -10 10 0 6 5 10 10 10 6 0
10 -4 10 -10z m25 -89 c-6 -5 -25 10 -25 20 0 5 6 4 14 -3 8 -7 12 -15 11 -17z
m5 -41 c0 -5 -4 -10 -10 -10 -5 0 -10 5 -10 10 0 6 5 10 10 10 6 0 10 -4 10
-10z m90 -120 c0 -5 -4 -10 -10 -10 -5 0 -10 5 -10 10 0 6 5 10 10 10 6 0 10
-4 10 -10z m4 -66 c4 -10 1 -14 -6 -12 -15 5 -23 28 -10 28 5 0 13 -7 16 -16z
m270 -779 c-6 -16 -24 -21 -24 -7 0 11 11 22 21 22 5 0 6 -7 3 -15z m9 -38 c3
-7 -3 -13 -13 -13 -10 0 -16 6 -13 13 3 7 9 13 13 13 4 0 10 -6 13 -13z m57
-117 c0 -5 -4 -10 -10 -10 -5 0 -10 5 -10 10 0 6 5 10 10 10 6 0 10 -4 10 -10z
m-5 -50 c3 -5 2 -10 -4 -10 -5 0 -13 5 -16 10 -3 6 -2 10 4 10 5 0 13 -4 16
-10z m945 -2700 c0 -5 -4 -10 -10 -10 -5 0 -10 5 -10 10 0 6 5 10 10 10 6 0
10 -4 10 -10z m20 -120 c0 -5 -4 -10 -10 -10 -5 0 -10 5 -10 10 0 6 5 10 10
10 6 0 10 -4 10 -10z m-15 -56 c-9 -9 -19 -13 -23 -10 -3 4 0 11 8 16 24 15
33 11 15 -6z m70 -104 c3 -5 1 -10 -4 -10 -6 0 -11 5 -11 10 0 6 2 10 4 10 3
0 8 -4 11 -10z m15 -80 c0 -5 -4 -10 -10 -10 -5 0 -10 5 -10 10 0 6 5 10 10
10 6 0 10 -4 10 -10z m60 -100 c0 -5 -4 -10 -10 -10 -5 0 -10 5 -10 10 0 6 5
10 10 10 6 0 10 -4 10 -10z m30 -170 c0 -5 -4 -10 -10 -10 -5 0 -10 5 -10 10
0 6 5 10 10 10 6 0 10 -4 10 -10z m30 -46 c0 -8 -4 -12 -10 -9 -5 3 -10 10
-10 16 0 5 5 9 10 9 6 0 10 -7 10 -16z m60 -114 c0 -5 -4 -10 -10 -10 -5 0
-10 5 -10 10 0 6 5 10 10 10 6 0 10 -4 10 -10z m37 -132 c-3 -8 -6 -5 -6 6 -1
11 2 17 5 13 3 -3 4 -12 1 -19z"/>
<path d="M6009 7889 c-10 -6 -7 -9 14 -9 29 0 35 5 14 13 -8 3 -20 1 -28 -4z"/>
<path d="M6060 7690 c0 -5 5 -10 10 -10 6 0 10 5 10 10 0 6 -4 10 -10 10 -5 0
-10 -4 -10 -10z"/>
<path d="M6090 7660 c0 -5 5 -10 10 -10 6 0 10 5 10 10 0 6 -4 10 -10 10 -5 0
-10 -4 -10 -10z"/>
<path d="M6140 7420 c0 -5 7 -7 15 -4 8 4 15 8 15 10 0 2 -7 4 -15 4 -8 0 -15
-4 -15 -10z"/>
<path d="M6240 7210 c0 -5 5 -10 10 -10 6 0 10 5 10 10 0 6 -4 10 -10 10 -5 0
-10 -4 -10 -10z"/>
<path d="M6270 7140 c0 -5 5 -10 10 -10 6 0 10 5 10 10 0 6 -4 10 -10 10 -5 0
-10 -4 -10 -10z"/>
<path d="M6292 7090 c0 -14 2 -19 5 -12 2 6 2 18 0 25 -3 6 -5 1 -5 -13z"/>
<path d="M6463 6583 c-15 -5 -17 -23 -4 -23 5 0 11 7 15 15 3 8 4 15 3 14 -1
0 -8 -3 -14 -6z"/>
<path d="M6501 6444 c0 -11 3 -14 6 -6 3 7 2 16 -1 19 -3 4 -6 -2 -5 -13z"/>
<path d="M7985 6260 c-16 -5 -68 -18 -115 -30 -47 -12 -91 -23 -99 -26 -8 -3
13 -26 55 -60 38 -31 101 -84 139 -118 130 -115 162 -132 152 -78 -16 89 -83
322 -91 321 -6 -1 -24 -5 -41 -9z"/>
<path d="M7176 6054 c-71 -18 -134 -35 -139 -37 -6 -2 32 -39 84 -83 52 -43
120 -103 151 -131 51 -47 63 -53 100 -53 24 0 59 5 78 10 19 5 55 14 80 20 25
6 62 16 82 22 l37 11 -44 36 c-23 20 -97 82 -164 139 -66 56 -124 102 -128
101 -5 -1 -66 -16 -137 -35z"/>
<path d="M20968 6058 c-8 -7 -287 -713 -618 -1568 -331 -855 -604 -1558 -606
-1562 -2 -3 3 -14 12 -22 13 -14 54 -16 298 -16 211 0 286 3 298 13 8 6 154
409 323 895 170 485 311 882 315 882 4 0 147 -397 319 -882 172 -486 320 -889
329 -895 12 -10 86 -13 292 -13 294 0 322 4 306 46 -142 381 -1213 3113 -1224
3122 -9 6 -19 12 -22 12 -3 0 -13 -6 -22 -12z"/>
<path d="M22390 6063 c-8 -3 -18 -11 -22 -17 -14 -20 -9 -491 4 -504 17 -17
1869 -17 1886 0 9 9 12 80 12 260 0 234 -1 248 -19 258 -21 11 -1832 14 -1861
3z"/>
<path d="M24387 6052 c-16 -17 -17 -141 -17 -1575 l0 -1556 22 -15 c20 -14
108 -16 755 -16 l733 0 0 295 0 295 -450 0 -450 0 0 360 0 360 628 0 c487 0
632 3 645 13 16 11 17 37 15 282 l-3 270 -642 3 -643 2 0 365 0 365 450 0 450
0 0 285 0 285 -738 0 c-703 0 -740 -1 -755 -18z"/>
<path d="M6383 6053 c9 -2 23 -2 30 0 6 3 -1 5 -18 5 -16 0 -22 -2 -12 -5z"/>
<path d="M6330 6040 c0 -5 7 -10 15 -10 8 0 15 5 15 10 0 6 -7 10 -15 10 -8 0
-15 -4 -15 -10z"/>
<path d="M6278 6023 c7 -3 16 -2 19 1 4 3 -2 6 -13 5 -11 0 -14 -3 -6 -6z"/>
<path d="M6220 6009 c0 -5 5 -7 10 -4 6 3 10 8 10 11 0 2 -4 4 -10 4 -5 0 -10
-5 -10 -11z"/>
<path d="M6158 5993 c7 -3 16 -2 19 1 4 3 -2 6 -13 5 -11 0 -14 -3 -6 -6z"/>
<path d="M6038 5963 c7 -3 16 -2 19 1 4 3 -2 6 -13 5 -11 0 -14 -3 -6 -6z"/>
<path d="M6538 5888 c-8 -5 -3 -8 16 -8 28 0 61 -20 117 -71 14 -13 56 -50 92
-82 43 -37 64 -63 60 -72 -3 -9 1 -15 8 -15 21 -1 -83 -40 -105 -40 -15 0 -17
-3 -9 -11 9 -9 19 -9 40 -1 15 6 54 16 86 22 31 6 57 14 56 18 0 4 -69 65
-153 136 -144 123 -179 143 -208 124z"/>
<path d="M6483 5873 c9 -2 23 -2 30 0 6 3 -1 5 -18 5 -16 0 -22 -2 -12 -5z"/>
<path d="M6423 5853 c9 -2 23 -2 30 0 6 3 -1 5 -18 5 -16 0 -22 -2 -12 -5z"/>
<path d="M6358 5843 c6 -2 18 -2 25 0 6 3 1 5 -13 5 -14 0 -19 -2 -12 -5z"/>
<path d="M6290 5826 c0 -2 7 -6 15 -10 8 -3 15 -1 15 4 0 6 -7 10 -15 10 -8 0
-15 -2 -15 -4z"/>
<path d="M6389 5746 c13 -16 51 -41 51 -33 0 2 -15 14 -32 27 -21 15 -28 17
-19 6z"/>
<path d="M6756 5701 c-3 -5 3 -11 13 -14 14 -3 18 -1 14 9 -6 16 -19 18 -27 5z"/>
<path d="M6457 5689 c7 -7 15 -10 18 -7 3 3 -2 9 -12 12 -14 6 -15 5 -6 -5z"/>
<path d="M6510 5645 c13 -14 27 -25 32 -25 5 0 -3 11 -18 25 -15 14 -29 25
-32 25 -3 0 5 -11 18 -25z"/>
<path d="M6780 5660 c0 -5 7 -10 15 -10 8 0 15 5 15 10 0 6 -7 10 -15 10 -8 0
-15 -4 -15 -10z"/>
<path d="M6581 5583 c18 -16 37 -27 42 -25 5 2 26 7 46 12 34 9 34 9 -10 4
-36 -4 -50 -1 -69 16 -13 11 -27 20 -32 20 -5 0 5 -12 23 -27z"/>
<path d="M6148 5443 c7 -3 16 -2 19 1 4 3 -2 6 -13 5 -11 0 -14 -3 -6 -6z"/>
<path d="M6690 5380 c0 -5 12 -10 26 -10 14 0 23 4 19 10 -3 6 -15 10 -26 10
-10 0 -19 -4 -19 -10z"/>
<path d="M6643 5363 c9 -2 23 -2 30 0 6 3 -1 5 -18 5 -16 0 -22 -2 -12 -5z"/>
<path d="M6575 5350 c-3 -5 1 -10 9 -10 8 0 18 5 21 10 3 6 -1 10 -9 10 -8 0
-18 -4 -21 -10z"/>
<path d="M6523 5333 c9 -2 23 -2 30 0 6 3 -1 5 -18 5 -16 0 -22 -2 -12 -5z"/>
<path d="M6460 5320 c0 -5 5 -10 10 -10 6 0 10 5 10 10 0 6 -4 10 -10 10 -5 0
-10 -4 -10 -10z"/>
<path d="M6398 5303 c6 -2 18 -2 25 0 6 3 1 5 -13 5 -14 0 -19 -2 -12 -5z"/>
<path d="M6893 5295 c-19 -21 -16 -24 12 -12 14 7 25 15 25 20 0 12 -24 7 -37
-8z"/>
<path d="M5873 5173 c9 -2 23 -2 30 0 6 3 -1 5 -18 5 -16 0 -22 -2 -12 -5z"/>
<path d="M5998 5173 c7 -3 16 -2 19 1 4 3 -2 6 -13 5 -11 0 -14 -3 -6 -6z"/>
<path d="M7210 4977 c0 -4 30 -50 68 -102 37 -52 89 -126 116 -164 l48 -70
152 -3 c83 -2 153 -2 154 -1 2 1 -52 79 -120 174 l-123 172 -147 1 c-82 1
-148 -2 -148 -7z"/>
<path d="M7960 4981 c0 -6 4 -12 9 -16 10 -5 60 -75 159 -220 54 -79 86 -115
103 -115 5 0 9 81 9 180 l0 180 -140 0 c-81 0 -140 -4 -140 -9z"/>
<path d="M6453 4974 c3 -3 69 -5 146 -5 l140 2 18 -28 c17 -27 26 -39 48 -66
6 -7 28 -38 49 -70 21 -32 41 -55 43 -53 4 4 -20 44 -49 81 -30 38 -77 104
-87 123 -11 21 -16 22 -163 22 -83 0 -149 -3 -145 -6z"/>
<path d="M23020 3910 c0 -978 0 -1000 19 -1010 12 -6 119 -10 278 -10 218 0
262 2 281 16 l22 15 0 995 0 994 -300 0 -300 0 0 -1000z"/>
<path d="M6910 4732 c0 -6 7 -17 15 -26 8 -8 19 -26 25 -40 5 -14 14 -26 20
-26 16 0 12 8 -25 57 -19 25 -35 41 -35 35z"/>
<path d="M6672 4664 c10 -10 20 -16 22 -13 3 3 -5 11 -17 18 -21 13 -21 12 -5
-5z"/>
<path d="M7005 4440 c-79 -6 -78 -6 45 -9 69 -2 133 -2 144 -1 12 1 16 -3 11
-10 -6 -9 -2 -9 13 -1 26 14 42 14 42 1 0 -5 -7 -10 -15 -10 -9 0 -12 -6 -9
-15 4 -9 0 -15 -10 -15 -9 0 -16 -7 -16 -15 0 -21 12 -19 39 6 l23 22 -7 -24
c-4 -13 -13 -27 -19 -31 -8 -6 -8 -10 1 -16 7 -4 15 -27 19 -50 7 -42 17 -53
28 -29 3 6 5 1 4 -13 -2 -52 2 -90 11 -90 5 0 11 8 14 18 2 9 4 3 4 -15 0 -21
-6 -34 -16 -37 -9 -2 3 -2 27 0 39 4 42 3 28 -12 -9 -8 -16 -22 -16 -30 0 -8
-7 -14 -15 -14 -9 0 -12 -6 -9 -15 4 -8 10 -15 15 -15 5 0 9 7 9 15 0 8 7 15
15 15 17 0 21 -26 5 -33 -6 -3 -5 -4 2 -3 12 2 38 -36 38 -55 0 -18 -19 -8
-22 11 -2 15 -6 17 -18 9 -11 -8 -12 -12 -2 -16 6 -2 12 -12 12 -21 0 -15 13
-28 79 -79 14 -11 13 -15 -8 -32 -30 -23 -21 -40 19 -35 16 2 30 0 30 -5 0
-12 -29 -23 -41 -15 -5 3 -9 -1 -9 -9 0 -8 11 -18 25 -21 27 -7 35 -26 10 -26
-23 0 -6 -29 21 -36 27 -7 31 -19 9 -28 -9 -3 -23 3 -32 14 -10 11 -22 20 -27
20 -5 0 7 -15 26 -33 31 -29 34 -36 24 -57 -6 -14 -15 -29 -21 -33 -5 -4 4 -5
20 -1 22 4 26 3 15 -5 -8 -5 -11 -13 -8 -17 4 -3 14 1 22 9 12 12 13 17 3 20
-9 4 -9 7 1 18 11 12 14 12 22 -1 13 -21 12 -26 -6 -44 -13 -14 -13 -16 0 -16
17 0 46 -26 46 -41 0 -6 -7 -3 -16 5 -15 15 -44 22 -44 10 0 -3 7 -12 15 -20
8 -9 15 -21 15 -27 0 -7 -4 -6 -10 3 -5 8 -12 11 -16 7 -13 -13 6 -21 44 -19
23 1 32 -1 24 -6 -7 -5 -14 -26 -17 -48 -2 -21 -1 -33 1 -26 8 18 24 14 24 -6
0 -11 10 -24 23 -30 21 -10 21 -11 1 -11 -29 -1 -31 -61 -1 -61 16 0 19 -6 15
-35 -3 -30 -1 -34 14 -29 25 8 23 -11 -4 -28 -12 -8 -18 -19 -14 -26 10 -17
26 -15 20 3 -4 8 -1 15 5 15 18 0 13 -38 -6 -49 -10 -5 -15 -13 -11 -17 4 -4
14 -1 23 6 9 7 19 10 22 6 4 -4 3 -10 -3 -14 -18 -12 -24 -52 -8 -52 17 0 18
-17 2 -23 -8 -3 -5 -6 5 -6 12 -1 17 -7 15 -18 -3 -17 -28 -18 -298 -24 l-295
-5 390 0 390 1 75 36 c122 58 196 143 242 274 16 45 17 105 18 613 l0 562
-577 -2 c-318 -1 -614 -5 -658 -8z m289 -146 c4 -15 5 -29 1 -32 -3 -3 -5 2
-5 11 0 10 -4 17 -10 17 -5 0 -10 7 -10 15 0 25 17 17 24 -11z m53 -100 c-3
-3 -12 -4 -19 -1 -8 3 -5 6 6 6 11 1 17 -2 13 -5z m141 -368 c-7 -8 -15 -12
-17 -11 -5 6 10 25 20 25 5 0 4 -6 -3 -14z m212 -546 c13 -9 13 -11 0 -20 -8
-5 -19 -10 -25 -10 -5 0 -3 5 5 10 13 9 13 11 0 20 -8 5 -10 10 -5 10 6 0 17
-5 25 -10z m50 -124 c0 -3 -4 -8 -10 -11 -5 -3 -10 -1 -10 4 0 6 5 11 10 11 6
0 10 -2 10 -4z m20 -156 c0 -5 -7 -10 -15 -10 -8 0 -15 5 -15 10 0 6 7 10 15
10 8 0 15 -4 15 -10z"/>
<path d="M7210 4330 c0 -5 5 -10 10 -10 6 0 10 5 10 10 0 6 -4 10 -10 10 -5 0
-10 -4 -10 -10z"/>
<path d="M7414 3850 c0 -11 6 -15 18 -12 10 2 18 8 18 12 0 4 -8 10 -18 12
-12 3 -18 -1 -18 -12z"/>
<path d="M7060 3820 c8 -5 20 -10 25 -10 6 0 3 5 -5 10 -8 5 -19 10 -25 10 -5
0 -3 -5 5 -10z"/>
<path d="M7100 3802 c0 -9 61 -44 67 -39 2 3 -12 14 -32 25 -19 12 -35 18 -35
14z"/>
<path d="M7200 3740 c23 -20 30 -24 30 -16 0 9 -32 36 -42 36 -6 0 -1 -9 12
-20z"/>
<path d="M7170 3640 c-8 -5 -10 -10 -5 -10 6 0 17 5 25 10 8 5 11 10 5 10 -5
0 -17 -5 -25 -10z"/>
<path d="M7120 3610 c-8 -5 -10 -10 -5 -10 6 0 17 5 25 10 8 5 11 10 5 10 -5
0 -17 -5 -25 -10z"/>
<path d="M7510 3510 c0 -5 5 -10 10 -10 6 0 10 5 10 10 0 6 -4 10 -10 10 -5 0
-10 -4 -10 -10z"/>
<path d="M7570 3420 c0 -5 5 -10 10 -10 6 0 10 5 10 10 0 6 -4 10 -10 10 -5 0
-10 -4 -10 -10z"/>
<path d="M7567 3344 c3 -8 11 -14 19 -14 21 0 17 17 -5 23 -14 3 -18 1 -14 -9z"/>
<path d="M7570 3270 c0 -5 5 -10 10 -10 6 0 10 5 10 10 0 6 -4 10 -10 10 -5 0
-10 -4 -10 -10z"/>
<path d="M7620 3180 c0 -5 5 -10 10 -10 6 0 10 5 10 10 0 6 -4 10 -10 10 -5 0
-10 -4 -10 -10z"/>
<path d="M7063 2963 c9 -2 25 -2 35 0 9 3 1 5 -18 5 -19 0 -27 -2 -17 -5z"/>
<path d="M7870 2550 c0 -5 -7 -10 -15 -10 -13 0 -14 -2 -3 -14 11 -12 13 -12
16 0 2 8 8 14 13 14 5 0 9 5 9 10 0 6 -4 10 -10 10 -5 0 -10 -4 -10 -10z"/>
<path d="M7966 2155 c4 -8 12 -15 20 -15 8 0 11 6 8 15 -4 8 -12 15 -20 15 -8
0 -11 -6 -8 -15z"/>
<path d="M8052 1918 c6 -18 25 -20 31 -3 5 10 0 15 -14 15 -12 0 -19 -5 -17
-12z"/>
<path d="M8090 1760 c0 -5 5 -10 10 -10 6 0 10 5 10 10 0 6 -4 10 -10 10 -5 0
-10 -4 -10 -10z"/>
<path d="M8225 1500 c-9 -15 4 -30 20 -23 8 3 15 9 15 13 0 12 -29 20 -35 10z"/>
</g>
</svg>
